<svg xmlns="http://www.w3.org/2000/svg" width="360" height="460" viewBox="0 0 360 460">
<rect width="360" height="460" fill="#090b12" rx="18"/>
<rect x="2" y="2" width="356" height="456" fill="none" stroke="#7c84f0" stroke-width="2" rx="16" stroke-opacity="0.4"/>
<text x="180" y="38" font-family="system-ui,sans-serif" font-size="22" font-weight="900" fill="#7c84f0" text-anchor="middle" letter-spacing="1">Contor Studio</text>
<text x="180" y="56" font-family="system-ui,sans-serif" font-size="10" fill="#5a6680" text-anchor="middle">Draw · Rig · Sculpt · Animate</text>
<rect x="77" y="52" width="206" height="206" fill="#fff" rx="8"/>
<rect x="105" y="80" width="6" height="6" fill="#090b12"/>
<rect x="111" y="80" width="6" height="6" fill="#090b12"/>
<rect x="117" y="80" width="6" height="6" fill="#090b12"/>
<rect x="123" y="80" width="6" height="6" fill="#090b12"/>
<rect x="129" y="80" width="6" height="6" fill="#090b12"/>
<rect x="135" y="80" width="6" height="6" fill="#090b12"/>
<rect x="141" y="80" width="6" height="6" fill="#090b12"/>
<rect x="165" y="80" width="6" height="6" fill="#090b12"/>
<rect x="171" y="80" width="6" height="6" fill="#090b12"/>
<rect x="201" y="80" width="6" height="6" fill="#090b12"/>
<rect x="213" y="80" width="6" height="6" fill="#090b12"/>
<rect x="219" y="80" width="6" height="6" fill="#090b12"/>
<rect x="225" y="80" width="6" height="6" fill="#090b12"/>
<rect x="231" y="80" width="6" height="6" fill="#090b12"/>
<rect x="237" y="80" width="6" height="6" fill="#090b12"/>
<rect x="243" y="80" width="6" height="6" fill="#090b12"/>
<rect x="249" y="80" width="6" height="6" fill="#090b12"/>
<rect x="105" y="86" width="6" height="6" fill="#090b12"/>
<rect x="141" y="86" width="6" height="6" fill="#090b12"/>
<rect x="189" y="86" width="6" height="6" fill="#090b12"/>
<rect x="195" y="86" width="6" height="6" fill="#090b12"/>
<rect x="213" y="86" width="6" height="6" fill="#090b12"/>
<rect x="249" y="86" width="6" height="6" fill="#090b12"/>
<rect x="105" y="92" width="6" height="6" fill="#090b12"/>
<rect x="117" y="92" width="6" height="6" fill="#090b12"/>
<rect x="123" y="92" width="6" height="6" fill="#090b12"/>
<rect x="129" y="92" width="6" height="6" fill="#090b12"/>
<rect x="141" y="92" width="6" height="6" fill="#090b12"/>
<rect x="153" y="92" width="6" height="6" fill="#090b12"/>
<rect x="159" y="92" width="6" height="6" fill="#090b12"/>
<rect x="165" y="92" width="6" height="6" fill="#090b12"/>
<rect x="171" y="92" width="6" height="6" fill="#090b12"/>
<rect x="183" y="92" width="6" height="6" fill="#090b12"/>
<rect x="201" y="92" width="6" height="6" fill="#090b12"/>
<rect x="213" y="92" width="6" height="6" fill="#090b12"/>
<rect x="225" y="92" width="6" height="6" fill="#090b12"/>
<rect x="231" y="92" width="6" height="6" fill="#090b12"/>
<rect x="237" y="92" width="6" height="6" fill="#090b12"/>
<rect x="249" y="92" width="6" height="6" fill="#090b12"/>
<rect x="105" y="98" width="6" height="6" fill="#090b12"/>
<rect x="117" y="98" width="6" height="6" fill="#090b12"/>
<rect x="123" y="98" width="6" height="6" fill="#090b12"/>
<rect x="129" y="98" width="6" height="6" fill="#090b12"/>
<rect x="141" y="98" width="6" height="6" fill="#090b12"/>
<rect x="177" y="98" width="6" height="6" fill="#090b12"/>
<rect x="189" y="98" width="6" height="6" fill="#090b12"/>
<rect x="195" y="98" width="6" height="6" fill="#090b12"/>
<rect x="201" y="98" width="6" height="6" fill="#090b12"/>
<rect x="213" y="98" width="6" height="6" fill="#090b12"/>
<rect x="225" y="98" width="6" height="6" fill="#090b12"/>
<rect x="231" y="98" width="6" height="6" fill="#090b12"/>
<rect x="237" y="98" width="6" height="6" fill="#090b12"/>
<rect x="249" y="98" width="6" height="6" fill="#090b12"/>
<rect x="105" y="104" width="6" height="6" fill="#090b12"/>
<rect x="117" y="104" width="6" height="6" fill="#090b12"/>
<rect x="123" y="104" width="6" height="6" fill="#090b12"/>
<rect x="129" y="104" width="6" height="6" fill="#090b12"/>
<rect x="141" y="104" width="6" height="6" fill="#090b12"/>
<rect x="177" y="104" width="6" height="6" fill="#090b12"/>
<rect x="183" y="104" width="6" height="6" fill="#090b12"/>
<rect x="189" y="104" width="6" height="6" fill="#090b12"/>
<rect x="201" y="104" width="6" height="6" fill="#090b12"/>
<rect x="213" y="104" width="6" height="6" fill="#090b12"/>
<rect x="225" y="104" width="6" height="6" fill="#090b12"/>
<rect x="231" y="104" width="6" height="6" fill="#090b12"/>
<rect x="237" y="104" width="6" height="6" fill="#090b12"/>
<rect x="249" y="104" width="6" height="6" fill="#090b12"/>
<rect x="105" y="110" width="6" height="6" fill="#090b12"/>
<rect x="141" y="110" width="6" height="6" fill="#090b12"/>
<rect x="165" y="110" width="6" height="6" fill="#090b12"/>
<rect x="183" y="110" width="6" height="6" fill="#090b12"/>
<rect x="195" y="110" width="6" height="6" fill="#090b12"/>
<rect x="213" y="110" width="6" height="6" fill="#090b12"/>
<rect x="249" y="110" width="6" height="6" fill="#090b12"/>
<rect x="105" y="116" width="6" height="6" fill="#090b12"/>
<rect x="111" y="116" width="6" height="6" fill="#090b12"/>
<rect x="117" y="116" width="6" height="6" fill="#090b12"/>
<rect x="123" y="116" width="6" height="6" fill="#090b12"/>
<rect x="129" y="116" width="6" height="6" fill="#090b12"/>
<rect x="135" y="116" width="6" height="6" fill="#090b12"/>
<rect x="141" y="116" width="6" height="6" fill="#090b12"/>
<rect x="153" y="116" width="6" height="6" fill="#090b12"/>
<rect x="165" y="116" width="6" height="6" fill="#090b12"/>
<rect x="177" y="116" width="6" height="6" fill="#090b12"/>
<rect x="189" y="116" width="6" height="6" fill="#090b12"/>
<rect x="201" y="116" width="6" height="6" fill="#090b12"/>
<rect x="213" y="116" width="6" height="6" fill="#090b12"/>
<rect x="219" y="116" width="6" height="6" fill="#090b12"/>
<rect x="225" y="116" width="6" height="6" fill="#090b12"/>
<rect x="231" y="116" width="6" height="6" fill="#090b12"/>
<rect x="237" y="116" width="6" height="6" fill="#090b12"/>
<rect x="243" y="116" width="6" height="6" fill="#090b12"/>
<rect x="249" y="116" width="6" height="6" fill="#090b12"/>
<rect x="153" y="122" width="6" height="6" fill="#090b12"/>
<rect x="177" y="122" width="6" height="6" fill="#090b12"/>
<rect x="183" y="122" width="6" height="6" fill="#090b12"/>
<rect x="195" y="122" width="6" height="6" fill="#090b12"/>
<rect x="201" y="122" width="6" height="6" fill="#090b12"/>
<rect x="105" y="128" width="6" height="6" fill="#090b12"/>
<rect x="111" y="128" width="6" height="6" fill="#090b12"/>
<rect x="117" y="128" width="6" height="6" fill="#090b12"/>
<rect x="129" y="128" width="6" height="6" fill="#090b12"/>
<rect x="135" y="128" width="6" height="6" fill="#090b12"/>
<rect x="141" y="128" width="6" height="6" fill="#090b12"/>
<rect x="147" y="128" width="6" height="6" fill="#090b12"/>
<rect x="153" y="128" width="6" height="6" fill="#090b12"/>
<rect x="159" y="128" width="6" height="6" fill="#090b12"/>
<rect x="165" y="128" width="6" height="6" fill="#090b12"/>
<rect x="171" y="128" width="6" height="6" fill="#090b12"/>
<rect x="177" y="128" width="6" height="6" fill="#090b12"/>
<rect x="183" y="128" width="6" height="6" fill="#090b12"/>
<rect x="195" y="128" width="6" height="6" fill="#090b12"/>
<rect x="207" y="128" width="6" height="6" fill="#090b12"/>
<rect x="213" y="128" width="6" height="6" fill="#090b12"/>
<rect x="219" y="128" width="6" height="6" fill="#090b12"/>
<rect x="225" y="128" width="6" height="6" fill="#090b12"/>
<rect x="237" y="128" width="6" height="6" fill="#090b12"/>
<rect x="243" y="128" width="6" height="6" fill="#090b12"/>
<rect x="249" y="128" width="6" height="6" fill="#090b12"/>
<rect x="105" y="134" width="6" height="6" fill="#090b12"/>
<rect x="123" y="134" width="6" height="6" fill="#090b12"/>
<rect x="135" y="134" width="6" height="6" fill="#090b12"/>
<rect x="153" y="134" width="6" height="6" fill="#090b12"/>
<rect x="159" y="134" width="6" height="6" fill="#090b12"/>
<rect x="171" y="134" width="6" height="6" fill="#090b12"/>
<rect x="177" y="134" width="6" height="6" fill="#090b12"/>
<rect x="195" y="134" width="6" height="6" fill="#090b12"/>
<rect x="201" y="134" width="6" height="6" fill="#090b12"/>
<rect x="207" y="134" width="6" height="6" fill="#090b12"/>
<rect x="213" y="134" width="6" height="6" fill="#090b12"/>
<rect x="225" y="134" width="6" height="6" fill="#090b12"/>
<rect x="231" y="134" width="6" height="6" fill="#090b12"/>
<rect x="243" y="134" width="6" height="6" fill="#090b12"/>
<rect x="111" y="140" width="6" height="6" fill="#090b12"/>
<rect x="123" y="140" width="6" height="6" fill="#090b12"/>
<rect x="135" y="140" width="6" height="6" fill="#090b12"/>
<rect x="141" y="140" width="6" height="6" fill="#090b12"/>
<rect x="153" y="140" width="6" height="6" fill="#090b12"/>
<rect x="159" y="140" width="6" height="6" fill="#090b12"/>
<rect x="165" y="140" width="6" height="6" fill="#090b12"/>
<rect x="171" y="140" width="6" height="6" fill="#090b12"/>
<rect x="177" y="140" width="6" height="6" fill="#090b12"/>
<rect x="183" y="140" width="6" height="6" fill="#090b12"/>
<rect x="189" y="140" width="6" height="6" fill="#090b12"/>
<rect x="201" y="140" width="6" height="6" fill="#090b12"/>
<rect x="213" y="140" width="6" height="6" fill="#090b12"/>
<rect x="219" y="140" width="6" height="6" fill="#090b12"/>
<rect x="231" y="140" width="6" height="6" fill="#090b12"/>
<rect x="237" y="140" width="6" height="6" fill="#090b12"/>
<rect x="105" y="146" width="6" height="6" fill="#090b12"/>
<rect x="111" y="146" width="6" height="6" fill="#090b12"/>
<rect x="117" y="146" width="6" height="6" fill="#090b12"/>
<rect x="153" y="146" width="6" height="6" fill="#090b12"/>
<rect x="159" y="146" width="6" height="6" fill="#090b12"/>
<rect x="165" y="146" width="6" height="6" fill="#090b12"/>
<rect x="171" y="146" width="6" height="6" fill="#090b12"/>
<rect x="183" y="146" width="6" height="6" fill="#090b12"/>
<rect x="207" y="146" width="6" height="6" fill="#090b12"/>
<rect x="237" y="146" width="6" height="6" fill="#090b12"/>
<rect x="243" y="146" width="6" height="6" fill="#090b12"/>
<rect x="111" y="152" width="6" height="6" fill="#090b12"/>
<rect x="117" y="152" width="6" height="6" fill="#090b12"/>
<rect x="129" y="152" width="6" height="6" fill="#090b12"/>
<rect x="135" y="152" width="6" height="6" fill="#090b12"/>
<rect x="141" y="152" width="6" height="6" fill="#090b12"/>
<rect x="147" y="152" width="6" height="6" fill="#090b12"/>
<rect x="159" y="152" width="6" height="6" fill="#090b12"/>
<rect x="171" y="152" width="6" height="6" fill="#090b12"/>
<rect x="177" y="152" width="6" height="6" fill="#090b12"/>
<rect x="195" y="152" width="6" height="6" fill="#090b12"/>
<rect x="201" y="152" width="6" height="6" fill="#090b12"/>
<rect x="207" y="152" width="6" height="6" fill="#090b12"/>
<rect x="219" y="152" width="6" height="6" fill="#090b12"/>
<rect x="231" y="152" width="6" height="6" fill="#090b12"/>
<rect x="237" y="152" width="6" height="6" fill="#090b12"/>
<rect x="243" y="152" width="6" height="6" fill="#090b12"/>
<rect x="249" y="152" width="6" height="6" fill="#090b12"/>
<rect x="105" y="158" width="6" height="6" fill="#090b12"/>
<rect x="111" y="158" width="6" height="6" fill="#090b12"/>
<rect x="123" y="158" width="6" height="6" fill="#090b12"/>
<rect x="165" y="158" width="6" height="6" fill="#090b12"/>
<rect x="183" y="158" width="6" height="6" fill="#090b12"/>
<rect x="189" y="158" width="6" height="6" fill="#090b12"/>
<rect x="201" y="158" width="6" height="6" fill="#090b12"/>
<rect x="225" y="158" width="6" height="6" fill="#090b12"/>
<rect x="243" y="158" width="6" height="6" fill="#090b12"/>
<rect x="129" y="164" width="6" height="6" fill="#090b12"/>
<rect x="141" y="164" width="6" height="6" fill="#090b12"/>
<rect x="147" y="164" width="6" height="6" fill="#090b12"/>
<rect x="159" y="164" width="6" height="6" fill="#090b12"/>
<rect x="189" y="164" width="6" height="6" fill="#090b12"/>
<rect x="201" y="164" width="6" height="6" fill="#090b12"/>
<rect x="207" y="164" width="6" height="6" fill="#090b12"/>
<rect x="213" y="164" width="6" height="6" fill="#090b12"/>
<rect x="219" y="164" width="6" height="6" fill="#090b12"/>
<rect x="225" y="164" width="6" height="6" fill="#090b12"/>
<rect x="231" y="164" width="6" height="6" fill="#090b12"/>
<rect x="237" y="164" width="6" height="6" fill="#090b12"/>
<rect x="117" y="170" width="6" height="6" fill="#090b12"/>
<rect x="153" y="170" width="6" height="6" fill="#090b12"/>
<rect x="165" y="170" width="6" height="6" fill="#090b12"/>
<rect x="171" y="170" width="6" height="6" fill="#090b12"/>
<rect x="177" y="170" width="6" height="6" fill="#090b12"/>
<rect x="183" y="170" width="6" height="6" fill="#090b12"/>
<rect x="201" y="170" width="6" height="6" fill="#090b12"/>
<rect x="207" y="170" width="6" height="6" fill="#090b12"/>
<rect x="219" y="170" width="6" height="6" fill="#090b12"/>
<rect x="225" y="170" width="6" height="6" fill="#090b12"/>
<rect x="237" y="170" width="6" height="6" fill="#090b12"/>
<rect x="243" y="170" width="6" height="6" fill="#090b12"/>
<rect x="105" y="176" width="6" height="6" fill="#090b12"/>
<rect x="111" y="176" width="6" height="6" fill="#090b12"/>
<rect x="117" y="176" width="6" height="6" fill="#090b12"/>
<rect x="129" y="176" width="6" height="6" fill="#090b12"/>
<rect x="135" y="176" width="6" height="6" fill="#090b12"/>
<rect x="141" y="176" width="6" height="6" fill="#090b12"/>
<rect x="147" y="176" width="6" height="6" fill="#090b12"/>
<rect x="153" y="176" width="6" height="6" fill="#090b12"/>
<rect x="165" y="176" width="6" height="6" fill="#090b12"/>
<rect x="171" y="176" width="6" height="6" fill="#090b12"/>
<rect x="183" y="176" width="6" height="6" fill="#090b12"/>
<rect x="201" y="176" width="6" height="6" fill="#090b12"/>
<rect x="207" y="176" width="6" height="6" fill="#090b12"/>
<rect x="213" y="176" width="6" height="6" fill="#090b12"/>
<rect x="219" y="176" width="6" height="6" fill="#090b12"/>
<rect x="225" y="176" width="6" height="6" fill="#090b12"/>
<rect x="231" y="176" width="6" height="6" fill="#090b12"/>
<rect x="237" y="176" width="6" height="6" fill="#090b12"/>
<rect x="153" y="182" width="6" height="6" fill="#090b12"/>
<rect x="159" y="182" width="6" height="6" fill="#090b12"/>
<rect x="195" y="182" width="6" height="6" fill="#090b12"/>
<rect x="201" y="182" width="6" height="6" fill="#090b12"/>
<rect x="225" y="182" width="6" height="6" fill="#090b12"/>
<rect x="105" y="188" width="6" height="6" fill="#090b12"/>
<rect x="111" y="188" width="6" height="6" fill="#090b12"/>
<rect x="117" y="188" width="6" height="6" fill="#090b12"/>
<rect x="123" y="188" width="6" height="6" fill="#090b12"/>
<rect x="129" y="188" width="6" height="6" fill="#090b12"/>
<rect x="135" y="188" width="6" height="6" fill="#090b12"/>
<rect x="141" y="188" width="6" height="6" fill="#090b12"/>
<rect x="153" y="188" width="6" height="6" fill="#090b12"/>
<rect x="165" y="188" width="6" height="6" fill="#090b12"/>
<rect x="171" y="188" width="6" height="6" fill="#090b12"/>
<rect x="189" y="188" width="6" height="6" fill="#090b12"/>
<rect x="195" y="188" width="6" height="6" fill="#090b12"/>
<rect x="201" y="188" width="6" height="6" fill="#090b12"/>
<rect x="213" y="188" width="6" height="6" fill="#090b12"/>
<rect x="225" y="188" width="6" height="6" fill="#090b12"/>
<rect x="105" y="194" width="6" height="6" fill="#090b12"/>
<rect x="141" y="194" width="6" height="6" fill="#090b12"/>
<rect x="159" y="194" width="6" height="6" fill="#090b12"/>
<rect x="177" y="194" width="6" height="6" fill="#090b12"/>
<rect x="183" y="194" width="6" height="6" fill="#090b12"/>
<rect x="201" y="194" width="6" height="6" fill="#090b12"/>
<rect x="225" y="194" width="6" height="6" fill="#090b12"/>
<rect x="231" y="194" width="6" height="6" fill="#090b12"/>
<rect x="237" y="194" width="6" height="6" fill="#090b12"/>
<rect x="243" y="194" width="6" height="6" fill="#090b12"/>
<rect x="249" y="194" width="6" height="6" fill="#090b12"/>
<rect x="105" y="200" width="6" height="6" fill="#090b12"/>
<rect x="117" y="200" width="6" height="6" fill="#090b12"/>
<rect x="123" y="200" width="6" height="6" fill="#090b12"/>
<rect x="129" y="200" width="6" height="6" fill="#090b12"/>
<rect x="141" y="200" width="6" height="6" fill="#090b12"/>
<rect x="159" y="200" width="6" height="6" fill="#090b12"/>
<rect x="165" y="200" width="6" height="6" fill="#090b12"/>
<rect x="171" y="200" width="6" height="6" fill="#090b12"/>
<rect x="183" y="200" width="6" height="6" fill="#090b12"/>
<rect x="195" y="200" width="6" height="6" fill="#090b12"/>
<rect x="201" y="200" width="6" height="6" fill="#090b12"/>
<rect x="207" y="200" width="6" height="6" fill="#090b12"/>
<rect x="213" y="200" width="6" height="6" fill="#090b12"/>
<rect x="219" y="200" width="6" height="6" fill="#090b12"/>
<rect x="225" y="200" width="6" height="6" fill="#090b12"/>
<rect x="231" y="200" width="6" height="6" fill="#090b12"/>
<rect x="237" y="200" width="6" height="6" fill="#090b12"/>
<rect x="105" y="206" width="6" height="6" fill="#090b12"/>
<rect x="117" y="206" width="6" height="6" fill="#090b12"/>
<rect x="123" y="206" width="6" height="6" fill="#090b12"/>
<rect x="129" y="206" width="6" height="6" fill="#090b12"/>
<rect x="141" y="206" width="6" height="6" fill="#090b12"/>
<rect x="165" y="206" width="6" height="6" fill="#090b12"/>
<rect x="183" y="206" width="6" height="6" fill="#090b12"/>
<rect x="207" y="206" width="6" height="6" fill="#090b12"/>
<rect x="219" y="206" width="6" height="6" fill="#090b12"/>
<rect x="237" y="206" width="6" height="6" fill="#090b12"/>
<rect x="105" y="212" width="6" height="6" fill="#090b12"/>
<rect x="117" y="212" width="6" height="6" fill="#090b12"/>
<rect x="123" y="212" width="6" height="6" fill="#090b12"/>
<rect x="129" y="212" width="6" height="6" fill="#090b12"/>
<rect x="141" y="212" width="6" height="6" fill="#090b12"/>
<rect x="153" y="212" width="6" height="6" fill="#090b12"/>
<rect x="183" y="212" width="6" height="6" fill="#090b12"/>
<rect x="231" y="212" width="6" height="6" fill="#090b12"/>
<rect x="243" y="212" width="6" height="6" fill="#090b12"/>
<rect x="105" y="218" width="6" height="6" fill="#090b12"/>
<rect x="141" y="218" width="6" height="6" fill="#090b12"/>
<rect x="165" y="218" width="6" height="6" fill="#090b12"/>
<rect x="171" y="218" width="6" height="6" fill="#090b12"/>
<rect x="177" y="218" width="6" height="6" fill="#090b12"/>
<rect x="183" y="218" width="6" height="6" fill="#090b12"/>
<rect x="201" y="218" width="6" height="6" fill="#090b12"/>
<rect x="213" y="218" width="6" height="6" fill="#090b12"/>
<rect x="219" y="218" width="6" height="6" fill="#090b12"/>
<rect x="225" y="218" width="6" height="6" fill="#090b12"/>
<rect x="231" y="218" width="6" height="6" fill="#090b12"/>
<rect x="237" y="218" width="6" height="6" fill="#090b12"/>
<rect x="243" y="218" width="6" height="6" fill="#090b12"/>
<rect x="105" y="224" width="6" height="6" fill="#090b12"/>
<rect x="111" y="224" width="6" height="6" fill="#090b12"/>
<rect x="117" y="224" width="6" height="6" fill="#090b12"/>
<rect x="123" y="224" width="6" height="6" fill="#090b12"/>
<rect x="129" y="224" width="6" height="6" fill="#090b12"/>
<rect x="135" y="224" width="6" height="6" fill="#090b12"/>
<rect x="141" y="224" width="6" height="6" fill="#090b12"/>
<rect x="159" y="224" width="6" height="6" fill="#090b12"/>
<rect x="171" y="224" width="6" height="6" fill="#090b12"/>
<rect x="183" y="224" width="6" height="6" fill="#090b12"/>
<rect x="195" y="224" width="6" height="6" fill="#090b12"/>
<rect x="201" y="224" width="6" height="6" fill="#090b12"/>
<rect x="237" y="224" width="6" height="6" fill="#090b12"/>
<rect x="243" y="224" width="6" height="6" fill="#090b12"/>
<rect x="249" y="224" width="6" height="6" fill="#090b12"/>
<text x="180" y="278" font-family="monospace,sans-serif" font-size="9" fill="#5a6680" text-anchor="middle">antoniotambornino.github.io/Contor</text>
<text x="180" y="304" font-family="system-ui,sans-serif" font-size="9" fill="#7c84f0" text-anchor="middle" opacity="0.7">ToonBoom Brushes · Puppet Rigging · 3D Shapes · UE Lighting</text>
<text x="180" y="438" font-family="system-ui,sans-serif" font-size="8" fill="#2a3050" text-anchor="middle">Antonio Modest Tambornino · © 2026</text>
</svg>